<?xml version="1.0" encoding="UTF-8"?>
<svg id="Layer_1" data-name="Layer 1" xmlns="http://www.w3.org/2000/svg" viewBox="0 0 1782.31 638.98">
  <defs>
    <style>
      .cls-1 {
        fill: #b72726;
      }
    </style>
  </defs>
  <path class="cls-1" d="M1309.97,195.16c-19.25,49.74-38.02,97.12-55.72,144.89-3.41,9.2-4.59,20.16-3.4,29.9,1.88,15.43,14.21,21.34,26.13,11.78,18.44-14.8,34.97-32,52-48.49,2.03-1.96,2.24-5.85,3.17-8.88,11.14-36.37,31.06-66.71,61.96-89.38,16.02-11.76,33.79-17.76,53.96-15.64,18.23,1.92,30.73,14.7,31.38,32.95,.82,22.95-9.41,41.98-25.56,56.45-18.94,16.99-40.2,31.42-60.67,46.68-9.42,7.02-10.27,9.81-3.97,19.84,7.18,11.42,21.88,17.61,36.73,10.6,18.03-8.51,35.08-19.83,50.96-31.99,19-14.55,34.49-32.58,43.32-55.6,3.14-8.19,8.17-15.66,12.52-23.8-8.63-9.7-9.48-21.58-4.36-32.5,5.93-12.65,13.53-24.81,22.08-35.89,8.78-11.38,21.45-15.02,35.4-9.7,12.92,4.93,17.41,16.42,18.9,28.65,1.04,8.54-.52,17.38-.95,26.72,2.6-.16,5.68-.37,8.77-.54,20.33-1.11,31.24,5.89,38.09,25.07,6.41,17.96,6.21,35.3-5.13,51.76-9.46,13.73-18.88,27.56-27.03,42.07-2.88,5.12-1.95,12.38-2.75,18.66,6.29-1.39,13.63-1.16,18.69-4.45,25.47-16.54,43.51-40.51,61.75-64.16,4.33-5.62,8.05-11.72,12.52-17.22,6.01-7.39,16.13-9.59,22.84-5.12,7.82,5.2,8.1,12.69,5.52,20.76-.54,1.68-1.18,3.39-2.12,4.87-24.31,38.22-50.03,75.44-89.03,100.36-10.32,6.59-23.33,11.66-35.39,12.32-34.32,1.87-58.62-33.41-45.39-65.3,7.17-17.27,17.35-33.29,26.05-49.93,3.84-7.35,7.36-14.86,11.49-23.24-10.31-.78-18.34-1.93-26.32-1.66-2.46,.08-5.44,3.64-7.07,6.29-21.7,35.39-43.19,70.91-64.76,106.39-1.66,2.73-3.33,5.46-5.17,8.06-5.04,7.1-11.99,12.86-20.54,9.84-5.96-2.1-10.35-8.61-15.89-13.55-12.85,5.08-27.79,12.9-43.69,16.89-37,9.27-65.58-4.86-82.94-38.76-.8-1.56-1.7-3.07-3.66-6.58-5.52,5.92-10.15,11.54-15.47,16.42-7.58,6.95-15.51,13.56-23.56,19.97-32.23,25.65-79.82,6.31-84.72-35.34-2.55-21.62,1.17-44.42,4.81-66.24,6.44-38.65,14.98-76.95,22.18-113.06-18.11-2.74-38.11-4.67-57.56-9.04-15.37-3.45-18.84-9.05-16.93-18.7,2.41-12.17,13.74-21.18,25.83-21.04,17.71,.21,35.43-.11,53.14,.22,6.33,.12,8.48-3.13,10.25-8.38,4.86-14.42,9.46-28.99,15.48-42.93,6.18-14.31,33.75-22.26,46.04-12.54,5.09,4.02,7.78,13.22,8.32,20.31,.85,11.12-1.06,22.45-1.81,34,16.65,2.68,32.74,4.93,48.68,7.99,7.25,1.39,14.26,4.21,21.27,6.7,13.52,4.81,16.69,10.57,12.99,22.93-3.22,10.78-13.67,16.89-24.6,15.57-20.76-2.5-41.6-4.41-62.41-6.46-2.41-.24-4.89,.22-4.64,.2Zm82.73,111.21c17.38-4.38,37.14-30.52,33.49-45.05-18.11,10.14-25.72,27.37-33.49,45.05Z"/>
  <path class="cls-1" d="M571.68,257.44c14.63,5.08,16.02,6.76,13.08,22.23-5.22,27.49-11.45,54.79-16.32,82.33-1.32,7.47,.71,15.53,1.21,23.32,6.28-4.06,13.48-7.2,18.64-12.37,10.02-10.04,18.95-21.16,28.19-31.96,1.81-2.12,3.58-4.6,4.36-7.21,5.89-19.67,12.52-39.21,16.8-59.25,1.9-8.89-1.08-18.82-2.03-30.52,10.72-8.25,25.52-13.89,42.74-11.93,14.39,1.64,22.41,8.81,20.71,23.01-1.88,15.64-6.58,31.04-11.05,46.26-5.08,17.32-11.61,34.21-16.76,51.51-1.89,6.34-2.39,13.35-2.09,19.99,.17,3.74,2.4,9,5.31,10.52,2.66,1.39,7.77-.72,11.26-2.41,3.08-1.49,5.7-4.27,8.02-6.93,23.63-27.11,41.69-57.11,49.77-92.68,2.74-12.07,1.81-22.43-8.02-31.64,12.05-11.61,25.32-19.14,41.64-19.55,18.22-.47,27.48,8.32,27.03,26.43-.23,9.43-1.73,19.26-4.92,28.1-24.96,69.28-38.92,141.33-54.39,212.98-6.88,31.85-12.8,63.92-19.32,95.85-3.49,17.1-14.24,23.6-31.38,19.37-17.82-4.39-27.49-20.94-22.81-38.54,13.01-48.95,25.91-97.93,38.81-146.91,.53-2.01,.62-4.12,1.26-8.57-17.19,11.8-33.81,18.63-53.62,13.62-19.48-4.93-33.33-15.29-42.55-37.41-4.27,5.4-8.18,11.13-12.87,16.13-10.78,11.49-24.45,16.68-40.09,16.8-18.82,.14-28.2-6.28-34.85-23.68-.73-1.92-1.45-3.85-1.79-4.73-12.97,7.72-24.9,16.85-38.31,22.42-48.95,20.33-70.38-8.82-70.76-47.34-.37-38.56,14.44-72.61,37.78-102.99,15.99-20.82,34.28-39.33,59.29-48.84,8.81-3.35,19.56-4.66,28.83-3.18,22.33,3.57,30.61,15.49,29.22,37.75Zm-50.42,8.86c-.82-.46-1.65-.92-2.47-1.38-14.47,13.81-25.53,30.52-32.49,48.87-6.29,16.56-9.58,34.55-11.91,52.21-1.45,10.96,5.05,14.33,14.61,8.42,8.32-5.15,16.27-11.49,22.87-18.69,17.51-19.1,15.08-45.05,23.88-69.14-9.54,1.92-17,3.43-25.63,5.17,4.02-9.19,7.58-17.33,11.15-25.46Z"/>
  <path class="cls-1" d="M116.91,179.64c-6.42-9.85-14.42-19.05-18.87-29.72-6.25-14.97-2.7-23.76,10.16-33.36,30.99-23.14,65.63-38.63,103.89-43.82,21.27-2.89,43.58-4.42,64.64-1.29,36.47,5.41,62.9,36.68,68.89,74.66,8.53,54.1-12.06,98.39-47.84,136.39-34.95,37.12-78.5,59.18-129.7,64.59-8.16,.86-11.05,4.14-12.85,11.99-7.83,34.15-16.34,68.14-25.05,102.08-1.74,6.77-4.82,13.4-8.38,19.45-13.79,23.41-43.79,27.7-63.92,9.33-4.64-4.24-8.74-9.07-13.48-14.03,26.88-17.8,32.61-46.44,39.93-73.6,21.75-80.69,42.55-161.64,63.69-242.49,.6-2.29,.88-4.67-.51-8.34-8.17,9.65-16.35,19.3-24.52,28.95-2.02-.26-4.04-.52-6.07-.78Zm46.97,128.87c8.7-2.81,14.12-4.39,19.41-6.29,65.16-23.42,103.75-76.81,102.83-142.19-.43-30.33-19.33-50.3-49.56-50.89-9.96-.2-19.98,2.63-27.81,3.77-15.06,65.63-29.65,129.22-44.88,195.61Z"/>
  <path class="cls-1" d="M1090.35,347.39c5.28,13.03,9.71,24.96,15.04,36.49,1.44,3.12,7.23,7.6,8.21,6.98,4.35-2.73,8.51-6.62,11.05-11.05,1.42-2.47,.2-7.06-.94-10.31-7.64-21.62-15.57-43.13-24.32-67.16-5.13,6.75-8.85,11.63-12.57,16.52-26.48,34.82-54.01,68.58-88.76,95.89-31.07,24.42-59.29,10.13-72.68-10.67-5.24-8.13-7.98-19.15-8.26-28.96-1.09-38.93,4.85-77.07,17.92-113.84,8.69-24.43,33.55-37.37,58.64-31.37,9.05,2.17,8.05,9.3,6.27,15.33-4.7,15.96-10.56,31.57-15.34,47.51-7.31,24.41-14.16,48.95-21.01,73.49-.84,2.99-1.06,6.38-.63,9.45,.79,5.62,4.04,8.36,9.67,5.34,4.99-2.68,10.04-5.44,14.47-8.91,33.6-26.38,60.78-58.57,84.21-94.03,1.46-2.2,2.27-6.5,1.1-8.47-5.35-9.04-2.46-17.43,1.65-25.31,9.18-17.58,23.09-30.46,41.57-38,14.87-6.06,31.17-.53,38.36,13.54,2.04,4,2.04,9.55,1.47,14.21-.45,3.64-2.43,7.84-5.1,10.35-14.26,13.45-11,28.41-4.23,43.56,6.07,13.57,11.8,27.44,19.38,40.16,17.01,28.54,11.2,53.34-10.13,76.46-15.19,16.46-31.63,30.79-55.47,32.51-24.14,1.74-55.07-25.39-56.04-49.13-.45-11.08,12.65-28.38,26.09-33.81,6.5-2.63,13.31-4.46,20.36-6.78Z"/>
  <path class="cls-1" d="M862.87,124.96c0-.35,0-.71,0-1.06-.54-21.04,.58-22.94,21.44-27.56,8.56-1.9,17.55-2.75,26.32-2.6,10.98,.18,16.73,5.92,16.06,16.94-.81,13.35-2.3,26.89-5.58,39.81-22.3,87.77-45.18,175.4-67.81,263.1-3.71,14.37-15.14,20.36-31.46,16.19-13.68-3.5-22.69-16.68-19.71-29.34,18.17-77.14,36.56-154.22,54.52-231.41,3.36-14.42,5.11-29.2,7.61-43.82-.46-.08-.93-.16-1.39-.24Z"/>
  <path class="cls-1" d="M420.32,91.27c18.05,2.13,25.67,9.25,22.33,26.46-5.71,29.48-13.03,58.68-20.41,87.82-17.53,69.3-35.49,138.5-53.27,207.73-3.81,14.83-14.53,20.55-31.06,16.53-13.93-3.39-22.98-17.07-19.89-30.17,18.69-79.21,37.81-158.32,55.76-237.7,3.6-15.93,2.5-32.88,4.17-49.3,.35-3.48,2.56-8.7,5.2-9.69,12.14-4.55,24.73-7.89,37.16-11.67Z"/>
  <path class="cls-1" d="M964.63,154.19c.03-16.96,16.83-37.78,33.14-41.07,9.22-1.86,17.43,2.67,22.34,12.34,9.63,18.94,1.35,43.2-17.93,52.54-18.4,8.92-37.59-3.25-37.55-23.81Z"/>
</svg>